Coordinates
version=1
nRows=14
nColumns=36
inDegrees=yes

Units are S.I. units (second, meters, Newtons, ...)
If the header above contains a line with 'inDegrees', this indicates whether rotational values are in degrees (yes) or radians (no).

endheader
time	pelvis_tilt	pelvis_list	pelvis_rotation	pelvis_tx	pelvis_ty	pelvis_tz	hip_flexion_r	hip_adduction_r	hip_rotation_r	knee_angle_r	knee_angle_r_beta	ankle_angle_r	subtalar_angle_r	mtp_angle_r	hip_flexion_l	hip_adduction_l	hip_rotation_l	knee_angle_l	knee_angle_l_beta	ankle_angle_l	subtalar_angle_l	mtp_angle_l	lumbar_extension	lumbar_bending	lumbar_rotation	arm_flex_r	arm_add_r	arm_rot_r	elbow_flex_r	pro_sup_r	arm_flex_l	arm_add_l	arm_rot_l	elbow_flex_l	pro_sup_l
      0.00000000	     -1.12726508	     -0.79044826	     -1.81689564	     -0.94080718	      1.22696632	     -0.07000776	      6.05093321	      1.66003025	      0.18421158	     17.63135581	      0.30772521	      1.66709169	    -17.21733905	     -6.05052129	      3.49884276	     -1.61697342	     -1.55348142	     13.88004461	      0.24225248	      9.91848958	     -3.81306856	     -6.05052129	    -10.23401720	      2.11142074	      0.41395701	      1.14939445	     -7.85012002	      7.87294203	     26.13574334	     76.69562970	      1.52665014	     -5.90867367	     10.92449540	     28.79246114	     73.18078739
      0.00416670	     -2.97252799	     -0.14239565	     -1.90608822	     -0.94000896	      1.22511167	     -0.06973946	      9.76184931	      1.52666931	      1.30406243	     20.54672373	      0.35860798	      5.87826963	    -16.49740010	     -6.21512962	      6.77379014	     -0.29561479	      0.58737212	     16.17942845	      0.28238430	     10.35381938	     -4.49056559	     -6.21512962	     -8.09864518	      1.84820445	      0.17614979	      0.52842247	     -6.21071681	      0.95669052	     26.19071296	     77.02080019	      0.78955058	     -4.43202202	      4.42205413	     29.04541342	     74.21658465
      0.00833330	     -3.67893420	      0.54816603	     -2.27762802	     -0.93884306	      1.22539797	     -0.06845056	     10.28726998	      0.81018483	      0.81745430	     20.05430913	      0.35001372	      6.31743044	    -16.17741031	     -6.46374312	      7.31600980	      0.37169214	      1.05845735	     16.06610004	      0.28040634	     10.52627053	     -4.77754209	     -6.46374312	     -6.96509127	      0.94378780	      0.35212330	      0.11176351	     -5.58265895	     -1.20767292	     26.54391923	     75.49254900	      0.30495812	     -4.43370375	      3.34866512	     29.08309582	     73.35028996
      0.01250000	     -3.41481600	      0.83758039	     -2.39520298	     -0.94003141	      1.22856975	     -0.06775882	      9.89130282	      0.44816089	      0.55162190	     19.80792396	      0.34571349	      6.32191074	    -15.95848505	     -6.63482935	      6.65811150	      0.79911836	      1.80553405	     15.34679457	      0.26785209	     10.01480915	     -5.71273339	     -6.63482935	     -7.31476631	      0.54308246	      0.55172059	     -0.03352954	     -5.20044854	     -2.77803778	     27.10636159	     74.14592004	      0.18586338	     -4.54188187	      2.74243784	     29.44271966	     72.54449160
      0.01666670	     -2.96989868	      0.90830188	     -2.41857471	     -0.93978958	      1.22971135	     -0.06795533	      9.14971435	      0.35900881	      0.35885143	     19.21606495	      0.33538360	      6.13724196	    -15.69149233	     -6.96494912	      5.80546874	      0.95988069	      2.29859281	     14.58339132	      0.25452819	      9.74097929	     -6.32534312	     -6.96494912	     -8.09797135	      0.48004499	      1.16499795	     -0.70646989	     -4.54841576	     -7.93481383	     28.67896553	     82.73452273	      0.43144038	     -4.37916209	      1.11792085	     29.82665850	     82.54126484
      0.02083330	     -2.72001405	      0.95430228	     -2.35239210	     -0.93963588	      1.22979956	     -0.06759191	      8.84209390	      0.32657137	      0.39937765	     19.03607748	      0.33224223	      5.70322726	    -15.97879535	     -7.01050262	      5.43094018	      1.08745175	      2.71457531	     14.35098106	      0.25047187	      9.68728984	     -6.70775286	     -7.01050262	     -8.43412791	      0.44408094	      1.20770966	     -0.75523154	     -4.47825898	     -7.83147388	     28.92581987	     81.43858837	      0.55826625	     -4.38435546	      1.14931518	     30.02452349	     81.33014375
      0.02500000	     -2.48611122	      0.99336297	     -2.21619282	     -0.93908914	      1.22989835	     -0.06742668	      8.45963850	      0.30739901	      0.49739709	     18.73216009	      0.32693787	      5.20861666	    -16.29378393	     -7.03446048	      5.11227377	      1.16705105	      3.01978497	     14.21046677	      0.24801943	      9.42441372	     -7.24621119	     -7.03446048	     -8.71750402	      0.42243107	      1.24884364	     -0.78169515	     -4.45402164	     -7.55671308	     29.11584493	     80.64674797	      0.79532392	     -4.36919639	      1.30614716	     30.21213628	     80.62113991
      0.02916670	     -2.27661265	      1.06021838	     -2.07470178	     -0.93916518	      1.22955504	     -0.06693286	      8.19654013	      0.28588901	      0.72054130	     18.61618245	      0.32491368	      5.34467243	    -16.04021305	     -7.08513036	      4.92727095	      1.27545217	      3.31732004	     14.35166234	      0.25048376	      9.26537923	     -7.86017093	     -7.08513036	     -9.01057688	      0.32452705	      1.23616900	     -0.81257831	     -4.42586780	     -7.21290092	     29.43374797	     79.81372337	      0.98474078	     -4.41302127	      1.47656795	     30.46632287	     79.88524527
      0.03333330	     -2.30833529	      1.06901508	     -2.00611546	     -0.94093805	      1.22721421	     -0.06836148	      8.39792898	      0.32106055	      1.21605707	     18.87452049	      0.32942253	      5.35410678	    -16.39727870	     -7.11758803	      5.06374439	      1.36033842	      3.64004485	     14.48398649	      0.25279325	      9.31072400	     -8.28243833	     -7.11758803	     -9.06522909	      0.35364943	      1.25686513	     -0.84513012	     -4.48003989	     -6.81779014	     29.72554834	     78.87690266	      1.16422856	     -4.38302863	      1.60706945	     30.72170378	     79.01946668
      0.03750000	     -2.35042122	      1.03809127	     -1.91504398	     -0.93991643	      1.22826241	     -0.06767085	      8.48746062	      0.41373256	      1.70089361	     18.94249582	      0.33060892	      5.58089936	    -16.12775126	     -7.23794246	      5.08977952	      1.38638862	      4.01445368	     14.43440415	      0.25192788	      9.41756892	     -8.62861463	     -7.23794246	     -9.11883992	      0.46106644	      1.10547244	     -0.78816637	     -4.62743838	     -6.51000029	     29.88882595	     81.70182390	      1.26755657	     -4.34632067	      1.03959833	     30.74888764	     83.38691439
      0.04166670	     -2.51575002	      0.98150091	     -1.84775047	     -0.94112324	      1.22459467	     -0.06792618	      8.80267843	      0.50766322	      2.01198018	     19.16850601	      0.33455354	      5.84323300	    -16.34578098	     -7.22979801	      5.40087051	      1.34915879	      4.19886490	     14.65850684	      0.25583921	      9.45237092	     -8.98835272	     -7.22979801	     -8.94169265	      0.50148375	      1.10911621	     -0.88638880	     -4.61528545	     -6.34666999	     30.20747644	     81.31724896	      1.31956652	     -4.32948789	      0.90432270	     30.90473370	     83.03602357
      0.04583330	     -2.66975362	      0.90912755	     -1.84720226	     -0.94151557	      1.22496992	     -0.06854096	      9.06675937	      0.57275850	      2.19762976	     19.36886454	      0.33805046	      5.94972680	    -16.41079976	     -7.27261098	      5.68813447	      1.33471298	      4.40967910	     14.80063672	      0.25831984	      9.48766510	     -9.24917260	     -7.27261098	     -8.78821636	      0.61413607	      1.13078527	     -0.93599684	     -4.70645766	     -6.12153597	     30.50775122	     79.87301066	      1.37859537	     -4.28038937	      1.03980661	     30.91829552	     81.53666937
      0.05000000	     -2.85930841	      0.85108157	     -1.93029491	     -0.94073828	      1.22727195	     -0.06828882	      9.25874780	      0.67508142	      2.41260432	     19.33395056	      0.33744109	      5.67707157	    -16.87629346	     -7.32094945	      5.87595416	      1.30069005	      4.57884328	     14.78020969	      0.25796332	      9.19068678	     -9.70533250	     -7.32094945	     -8.57767554	      0.65834965	      1.16813877	     -1.00469707	     -4.80899804	     -5.60700975	     30.65178937	     78.20121613	      1.40171516	     -4.30808590	      1.45799059	     30.85742299	     79.81610389
      0.05416670	     -3.10776368	      0.83929339	     -1.96128990	     -0.93966556	      1.22571908	     -0.06785152	      9.43399583	      0.74498281	      2.62888570	     19.31844767	      0.33717052	      5.55425722	    -17.00798262	     -7.33619556	      6.03779740	      1.28708321	      4.77921493	     14.72325106	      0.25696921	      8.99198092	     -9.96697998	     -7.33619556	     -8.18727913	      0.68409458	      1.15862583	     -1.18390172	     -4.86501377	     -5.39312274	     30.78367997	     77.59007666	      1.23476575	     -4.33465900	      1.62071298	     30.87580183	     79.21081372
